<?xml version="1.0" ?><!DOCTYPE svg  PUBLIC '-//W3C//DTD SVG 1.1//EN'  'http://www.w3.org/Graphics/SVG/1.1/DTD/svg11.dtd'><svg height="100%" style="fill-rule:evenodd;clip-rule:evenodd;stroke-linejoin:round;stroke-miterlimit:2;" version="1.1" viewBox="0 0 512 512" width="100%" xml:space="preserve" xmlns="http://www.w3.org/2000/svg" xmlns:serif="http://www.serif.com/" xmlns:xlink="http://www.w3.org/1999/xlink"><g transform="matrix(2.55543,0,0,2.75013,-60.3466,-68.7456)"><path d="M76.877,93.988L66.32,84.179L39.21,93.988L28.653,199.179L39.21,208.988L76.877,208.988L76.877,93.988Z" style="fill:white;stroke:black;stroke-width:3.84px;stroke-linecap:round;stroke-miterlimit:1.5;"/></g><g transform="matrix(2.75013,0,0,2.75013,-70.731,-68.7456)"><path d="M134.21,109.118C141.172,96.098 184.029,89.203 184.029,89.203C184.029,89.203 188.996,93.364 196.138,100.254C204.365,108.19 209.544,120.52 209.544,133.322L209.544,208.988L174.544,208.988L164.826,199.179L174.544,176.279L174.544,141.648C173.368,128.884 163.553,122.322 155.377,122.322C145.44,122.322 135.356,127.363 134.21,143.013L134.21,208.988L99.21,208.988L89.401,199.179L99.21,93.988L134.21,93.988L134.21,109.118Z" style="fill:white;stroke:black;stroke-width:3.71px;stroke-linecap:round;stroke-miterlimit:1.5;"/></g><g transform="matrix(2.70613,0,0,2.72795,-75.3786,-87.9302)"><path d="M64.645,39.423C64.645,39.423 71.777,46.538 75.527,50.139C79.442,53.897 81.877,59.163 81.877,64.988C81.877,76.395 72.542,85.655 61.044,85.655C55.384,85.655 50.249,83.412 46.493,79.773C42.618,76.02 36.144,69.506 36.144,69.506L64.645,39.423Z" style="fill:white;stroke:black;stroke-width:3.75px;stroke-linecap:round;stroke-miterlimit:1.5;"/></g><g transform="matrix(2.55543,0,0,2.75013,-87.3241,-95.7231)"><rect height="115" style="fill:white;stroke:black;stroke-width:3.84px;stroke-linecap:round;stroke-miterlimit:1.5;" width="37.667" x="39.21" y="93.988"/></g><g transform="matrix(2.75013,0,0,2.75013,-97.7084,-95.7231)"><path d="M134.21,109.118C141.172,96.098 154.245,89.988 169.21,89.988C191.471,89.988 209.544,109.405 209.544,133.322L209.544,208.988L174.544,208.988L174.544,141.648C173.368,128.884 163.553,122.322 155.377,122.322C145.44,122.322 135.356,127.363 134.21,143.013L134.21,208.988L99.21,208.988L99.21,93.988L134.21,93.988L134.21,109.118Z" style="fill:white;stroke:black;stroke-width:3.71px;stroke-linecap:round;stroke-miterlimit:1.5;"/></g><g transform="matrix(2.70613,0,0,2.72795,-102.356,-114.908)"><ellipse cx="61.044" cy="64.988" rx="20.833" ry="20.667" style="fill:white;stroke:black;stroke-width:3.75px;stroke-linecap:round;stroke-miterlimit:1.5;"/></g><g transform="matrix(2.77691,0,0,2.77691,-360.697,33.6721)"><path d="M169.19,58.242L178.905,68.2" style="fill:none;stroke:black;stroke-width:3.67px;stroke-linecap:round;stroke-linejoin:miter;stroke-miterlimit:5;"/></g><g transform="matrix(2.77691,0,0,2.77691,-360.697,65.6638)"><path d="M169.19,58.242L178.905,68.2" style="fill:none;stroke:black;stroke-width:3.67px;stroke-linecap:round;stroke-linejoin:miter;stroke-miterlimit:5;"/></g><g transform="matrix(2.77691,0,0,2.77691,-360.697,100.322)"><path d="M169.19,58.239L178.905,68.237" style="fill:none;stroke:black;stroke-width:3.67px;stroke-linecap:round;stroke-linejoin:miter;stroke-miterlimit:5;"/></g><g transform="matrix(2.77691,0,0,2.77691,-360.697,133.317)"><path d="M169.19,58.262L178.905,68.237" style="fill:none;stroke:black;stroke-width:3.67px;stroke-linecap:round;stroke-linejoin:miter;stroke-miterlimit:5;"/></g><g transform="matrix(2.77691,0,0,2.77691,-360.697,168.317)"><path d="M169.19,58.229L178.905,68.237" style="fill:none;stroke:black;stroke-width:3.67px;stroke-linecap:round;stroke-linejoin:miter;stroke-miterlimit:5;"/></g><g transform="matrix(2.77691,0,0,2.77691,-360.697,205.323)"><path d="M169.19,58.239L178.905,68.237" style="fill:none;stroke:black;stroke-width:3.67px;stroke-linecap:round;stroke-linejoin:miter;stroke-miterlimit:5;"/></g><g transform="matrix(2.77691,0,0,2.77691,-360.697,239.981)"><path d="M169.19,58.239L178.905,68.237" style="fill:none;stroke:black;stroke-width:3.67px;stroke-linecap:round;stroke-linejoin:miter;stroke-miterlimit:5;"/></g><g transform="matrix(2.77691,0,0,2.77691,-360.697,278.751)"><path d="M169.19,58.239L178.905,68.237" style="fill:none;stroke:black;stroke-width:3.67px;stroke-linecap:round;stroke-linejoin:miter;stroke-miterlimit:5;"/></g><g transform="matrix(2.77691,0,0,2.77691,-391.443,317.663)"><path d="M169.036,58.108L178.503,67.823" style="fill:none;stroke:black;stroke-width:3.67px;stroke-linecap:round;stroke-linejoin:miter;stroke-miterlimit:5;"/></g><g transform="matrix(2.77691,0,0,2.77691,-423.435,317.663)"><path d="M169.036,58.108L178.527,67.823" style="fill:none;stroke:black;stroke-width:3.67px;stroke-linecap:round;stroke-linejoin:miter;stroke-miterlimit:5;"/></g><g transform="matrix(2.77691,0,0,2.77691,-263.752,317.663)"><path d="M169.036,58.108L178.506,67.823" style="fill:none;stroke:black;stroke-width:3.67px;stroke-linecap:round;stroke-linejoin:miter;stroke-miterlimit:5;"/></g><g transform="matrix(2.77691,0,0,2.77691,-230.581,317.663)"><path d="M169.036,58.108L178.506,67.823" style="fill:none;stroke:black;stroke-width:3.67px;stroke-linecap:round;stroke-linejoin:miter;stroke-miterlimit:5;"/></g><g transform="matrix(2.57173,0,0,2.57173,-161.703,299.037)"><path d="M168.404,57.43L178.894,68.19" style="fill:none;stroke:black;stroke-width:3.97px;stroke-linecap:round;stroke-linejoin:miter;stroke-miterlimit:5;"/></g><g transform="matrix(2.57173,0,0,2.57173,-161.703,267.045)"><path d="M168.404,57.43L178.894,68.19" style="fill:none;stroke:black;stroke-width:3.97px;stroke-linecap:round;stroke-linejoin:miter;stroke-miterlimit:5;"/></g><g transform="matrix(2.57173,0,0,2.57173,-161.703,235.053)"><path d="M168.404,57.476L178.894,68.225" style="fill:none;stroke:black;stroke-width:3.97px;stroke-linecap:round;stroke-linejoin:miter;stroke-miterlimit:5;"/></g><g transform="matrix(2.57173,0,0,2.57173,-161.703,202.158)"><path d="M168.404,57.43L178.894,68.225" style="fill:none;stroke:black;stroke-width:3.97px;stroke-linecap:round;stroke-linejoin:miter;stroke-miterlimit:5;"/></g><g transform="matrix(2.57173,0,0,2.57173,-161.703,170.166)"><path d="M168.404,57.476L178.894,68.219" style="fill:none;stroke:black;stroke-width:3.97px;stroke-linecap:round;stroke-linejoin:miter;stroke-miterlimit:5;"/></g><g transform="matrix(2.57173,0,0,2.57173,-161.703,140.941)"><path d="M168.755,57.827L178.894,68.225" style="fill:none;stroke:black;stroke-width:3.97px;stroke-linecap:round;stroke-linejoin:miter;stroke-miterlimit:5;"/></g><g transform="matrix(2.57173,0,0,2.57173,-152.711,120.708)"><path d="M168.046,57.118L178.451,67.765" style="fill:none;stroke:black;stroke-width:3.97px;stroke-linecap:round;stroke-linejoin:miter;stroke-miterlimit:5;"/></g><g transform="matrix(2.57173,0,0,2.57173,-139.222,102.723)"><path d="M168.534,57.606L178.894,68.189" style="fill:none;stroke:black;stroke-width:3.97px;stroke-linecap:round;stroke-linejoin:miter;stroke-miterlimit:5;"/></g><g transform="matrix(2.57173,0,0,2.57173,-118.989,93.7301)"><path d="M168.645,57.717L178.921,68.252" style="fill:none;stroke:black;stroke-width:3.97px;stroke-linecap:round;stroke-linejoin:miter;stroke-miterlimit:5;"/></g><g transform="matrix(2.57173,0,0,2.57173,-22.0442,329.783)"><path d="M170,59.072L177.667,66.962" style="fill:none;stroke:black;stroke-width:3.97px;stroke-linecap:round;stroke-linejoin:miter;stroke-miterlimit:5;"/></g><g transform="matrix(2.57173,0,0,2.57173,10.1236,329.783)"><path d="M170,59.072L177.667,66.962" style="fill:none;stroke:black;stroke-width:3.97px;stroke-linecap:round;stroke-linejoin:miter;stroke-miterlimit:5;"/></g><g transform="matrix(2.57173,0,0,2.57173,45.1238,300.039)"><path d="M168.54,57.57L179.01,68.305" style="fill:none;stroke:black;stroke-width:3.97px;stroke-linecap:round;stroke-linejoin:miter;stroke-miterlimit:5;"/></g><g transform="matrix(2.57173,0,0,2.57173,45.1238,269.051)"><path d="M168.54,57.57L179.03,68.325" style="fill:none;stroke:black;stroke-width:3.97px;stroke-linecap:round;stroke-linejoin:miter;stroke-miterlimit:5;"/></g><g transform="matrix(2.57173,0,0,2.57173,45.1238,240.067)"><path d="M168.54,57.612L179.01,68.344" style="fill:none;stroke:black;stroke-width:3.97px;stroke-linecap:round;stroke-linejoin:miter;stroke-miterlimit:5;"/></g><g transform="matrix(2.57173,0,0,2.57173,45.1238,211.084)"><path d="M168.54,57.57L179.03,68.325" style="fill:none;stroke:black;stroke-width:3.97px;stroke-linecap:round;stroke-linejoin:miter;stroke-miterlimit:5;"/></g><g transform="matrix(2.57173,0,0,2.57173,45.1238,179.192)"><path d="M168.54,57.57L179.01,68.344" style="fill:none;stroke:black;stroke-width:3.97px;stroke-linecap:round;stroke-linejoin:miter;stroke-miterlimit:5;"/></g><g transform="matrix(2.57173,0,0,2.57173,45.1238,148.203)"><path d="M168.54,57.57L179.03,68.365" style="fill:none;stroke:black;stroke-width:3.97px;stroke-linecap:round;stroke-linejoin:miter;stroke-miterlimit:5;"/></g><g transform="matrix(2.57173,0,0,2.57173,45.1238,118.46)"><path d="M168.54,57.57L179.01,68.344" style="fill:none;stroke:black;stroke-width:3.97px;stroke-linecap:round;stroke-linejoin:miter;stroke-miterlimit:5;"/></g><g transform="matrix(2.57173,0,0,2.57173,40.6276,89.2339)"><path d="M168.56,57.632L179.205,68.5" style="fill:none;stroke:black;stroke-width:3.97px;stroke-linecap:round;stroke-linejoin:miter;stroke-miterlimit:5;"/></g><g transform="matrix(2.57173,0,0,2.57173,29.387,57.7602)"><path d="M166.056,55.127L178.196,67.491" style="fill:none;stroke:black;stroke-width:3.97px;stroke-linecap:round;stroke-linejoin:miter;stroke-miterlimit:5;"/></g><g transform="matrix(2.57173,0,0,2.57173,-92.0116,93.7301)"><path d="M168.789,57.825L178.925,68.22" style="fill:none;stroke:black;stroke-width:3.97px;stroke-linecap:round;stroke-linejoin:miter;stroke-miterlimit:5;"/></g><g transform="matrix(2.77691,0,0,2.77691,-360.697,315.415)"><path d="M169.19,58.239L178.905,68.2" style="fill:none;stroke:black;stroke-width:3.67px;stroke-linecap:round;stroke-linejoin:miter;stroke-miterlimit:5;"/></g><g transform="matrix(2.77691,0,0,2.77691,-201.08,315.415)"><path d="M170,59.072L177.667,66.962" style="fill:none;stroke:black;stroke-width:3.67px;stroke-linecap:round;stroke-linejoin:miter;stroke-miterlimit:5;"/></g><g transform="matrix(2.77691,0,0,2.77691,5.74734,315.415)"><path d="M170,59.072L177.667,66.962" style="fill:none;stroke:black;stroke-width:3.67px;stroke-linecap:round;stroke-linejoin:miter;stroke-miterlimit:5;"/></g><g transform="matrix(2.74843,0,0,2.74843,-353.586,-69.7782)"><path d="M169.282,58.333L178.993,68.327" style="fill:none;stroke:black;stroke-width:3.71px;stroke-linecap:round;stroke-linejoin:miter;stroke-miterlimit:5;"/></g><g transform="matrix(2.74843,0,0,2.74843,-374.657,-48.0932)"><path d="M169.085,58.157L178.757,68.052" style="fill:none;stroke:black;stroke-width:3.71px;stroke-linecap:round;stroke-linejoin:miter;stroke-miterlimit:5;"/></g><g transform="matrix(2.88823,0,0,2.88823,-370.166,-107.791)"><path d="M169.44,58.511L178.78,68.107" style="fill:none;stroke:black;stroke-width:3.53px;stroke-linecap:round;stroke-linejoin:miter;stroke-miterlimit:5;"/></g><g transform="matrix(2.88823,0,0,2.88823,-427.857,-50.328)"><path d="M169.47,58.542L178.55,67.871" style="fill:none;stroke:black;stroke-width:3.53px;stroke-linecap:round;stroke-linejoin:miter;stroke-miterlimit:5;"/></g></svg>