<?xml version="1.0" encoding="UTF-8" standalone="no"?>
<!-- Created with Inkscape (http://www.inkscape.org/) -->

<svg
   width="10.35393mm"
   height="8.4739103mm"
   viewBox="0 0 10.35393 8.4739103"
   version="1.1"
   id="svg1"
   xmlns="http://www.w3.org/2000/svg"
   xmlns:svg="http://www.w3.org/2000/svg">
  <defs
     id="defs1" />
  <g
     id="layer1"
     transform="translate(-114.63356,-102.05708)">
    <g
       id="g1"
       style="fill:#000000;fill-opacity:1">
      <path
         d="m 120.41388,110.53099 c -0.89679,0 -1.68806,-0.18065 -2.37383,-0.54194 -0.68579,-0.36129 -1.22387,-0.85943 -1.61424,-1.49443 -0.37981,-0.64594 -0.56972,-1.38495 -0.56972,-2.21701 0,-0.85396 0.19519,-1.59296 0.58556,-2.21701 0.40091,-0.635 0.94426,-1.12766 1.63004,-1.47801 0.68578,-0.35034 1.47178,-0.52551 2.35801,-0.52551 0.90735,0 1.70391,0.18064 2.38968,0.54194 0.68577,0.35034 1.21857,0.84301 1.59839,1.478 0.37981,0.62405 0.56972,1.35758 0.56972,2.20059 0,0.84301 -0.19518,1.58749 -0.58555,2.23344 -0.37981,0.63499 -0.91261,1.13313 -1.59838,1.49442 -0.68578,0.35035 -1.48234,0.52552 -2.38968,0.52552 z m 0.0316,-2.46335 c 0.43257,0 0.78601,-0.16422 1.06032,-0.49267 0.28487,-0.33939 0.4273,-0.77185 0.4273,-1.29736 0,-0.52551 -0.13715,-0.95249 -0.41146,-1.28094 -0.27432,-0.33939 -1.29078,-1.21531 -1.04449,-0.50909 0.14939,0.42837 -0.82294,0.1697 -1.1078,0.50909 -0.27431,0.32845 -0.41147,0.75543 -0.41147,1.28094 0,0.52551 0.13716,0.95797 0.41147,1.29736 0.28486,0.32845 0.64357,0.49267 1.07613,0.49267 z"
         id="text1"
         style="font-size:14.1111px;font-family:'Paytone One';-inkscape-font-specification:'Paytone One';fill:#000000;fill-opacity:1;stroke-width:0.302272"
         aria-label="o" />
      <ellipse
         style="fill:#000000;fill-opacity:1;stroke-width:0.318772"
         id="path1"
         cx="115.50444"
         cy="102.98262"
         rx="0.87088048"
         ry="0.92553765" />
    </g>
  </g>
</svg>
