<svg id="visual" viewBox="0 0 900 600" width="900" height="600" xmlns="http://www.w3.org/2000/svg" xmlns:xlink="http://www.w3.org/1999/xlink" version="1.1"><g transform="translate(424.55952769417905 323.020498457888)"><path d="M83 -108.7C110.2 -76 136.8 -52.4 146.2 -22.4C155.5 7.6 147.4 44.1 126.1 65.2C104.8 86.2 70.2 92 36.1 108.5C1.9 125 -31.7 152.2 -50.6 143.4C-69.5 134.7 -73.7 89.8 -76.7 57.5C-79.7 25.1 -81.4 5.2 -88.1 -25.8C-94.8 -56.8 -106.5 -98.9 -92.7 -133.9C-78.8 -169 -39.4 -197 -5.8 -190.1C27.9 -183.2 55.7 -141.4 83 -108.7" fill="#8973ef"></path></g></svg>