<svg id="visual" viewBox="0 0 900 600" width="900" height="600" xmlns="http://www.w3.org/2000/svg" xmlns:xlink="http://www.w3.org/1999/xlink" version="1.1"><g transform="translate(472.8040950329176 318.330858715963)"><path d="M63.3 -94.8C81.2 -60.4 94.3 -39.7 95.2 -19.1C96.1 1.5 84.9 22 73.6 43.5C62.4 65 51.2 87.5 27.8 111.1C4.3 134.7 -31.4 159.4 -50.2 148.1C-69.1 136.9 -71.1 89.5 -87 54C-102.9 18.6 -132.7 -5 -139.4 -34.5C-146 -64 -129.6 -99.4 -102.5 -132.2C-75.4 -164.9 -37.7 -194.9 -7.5 -186C22.7 -177.1 45.4 -129.1 63.3 -94.8" fill="#FCDA69"></path></g></svg>