<?xml version="1.0" encoding="UTF-8" standalone="no"?>
<!-- Created with Inkscape (http://www.inkscape.org/) -->

<svg
   width="7.9742475mm"
   height="9.6125774mm"
   viewBox="0 0 7.9742475 9.6125774"
   version="1.1"
   id="svg1"
   xml:space="preserve"
   xmlns="http://www.w3.org/2000/svg"
   xmlns:svg="http://www.w3.org/2000/svg"><defs
     id="defs1" /><g
     id="layer1"
     transform="translate(-100.83602,-143.69384)"><g
       id="Layer_3"
       transform="matrix(0.26458333,0,0,0.26458333,96.356863,140.03333)"><g
         id="g4"><g
           id="Outline_Filled_5_"><path
             d="m 38.592,50.166 h -4.84 -4.844 c 0,0 0.014,-2.874 0,-4.844 -6.629,1.428 -8.479,-3.633 -8.479,-3.633 -1.21,-2.423 -2.423,-3.633 -2.423,-3.633 -2.423,-1.438 0,-1.21 0,-1.21 2.423,0 3.633,2.423 3.633,2.423 2.126,3.609 5.908,3.028 7.266,2.423 0,-1.21 0.53,-3.042 1.21,-3.633 -5.29,-0.595 -9.693,-3.633 -9.693,-9.689 0,-6.056 1.216,-7.266 2.427,-8.479 -0.244,-0.597 -1.259,-2.805 0.037,-6.056 0,0 2.38,0 4.803,3.633 1.2,-1.2 4.844,-1.21 6.056,-1.21 1.208,0 4.854,0.01 6.054,1.21 2.423,-3.633 4.809,-3.633 4.809,-3.633 1.296,3.251 0.282,5.459 0.037,6.056 1.21,1.21 2.423,2.423 2.423,8.479 0,6.056 -4.397,9.092 -9.689,9.689 0.682,0.591 1.21,2.675 1.21,3.633 z"
             fill="#333333"
             id="Cat_1_" /></g></g></g></g></svg>
